<svg width="1280" height="720" viewBox="0 0 1280 720" fill="none" xmlns="http://www.w3.org/2000/svg">
<g clip-path="url(#clip0_1_2)">
<g filter="url(#filter0_d_1_2)">
<path d="M788 80.2574H492L355 0H925L788 80.2574Z" fill="url(#paint0_linear_1_2)"/>
</g>
<g filter="url(#filter1_d_1_2)">
<path d="M787.5 79.0099H492.5L362 1.66337H917L787.5 79.0099Z" fill="url(#paint1_linear_1_2)"/>
</g>
<path d="M492 80.2574L492.5 79.0099H787.5L788 80.2574H492Z" fill="#535353"/>
<path d="M365 2.49505L362 1.66337H917L914 2.49505H365Z" fill="#6E6E6E"/>
<path d="M493 77.3465L492.5 79.0099H787.5L787 77.3465H493Z" fill="#EFEFEF"/>
<g filter="url(#filter2_d_1_2)">
<path d="M787 77.3465H493L365 2.49505H914L787 77.3465Z" fill="url(#paint2_linear_1_2)"/>
</g>
<path d="M355 0L362 1.66337H917L925 0H355Z" fill="#D9D9D9"/>
<rect x="500" y="74.0198" width="281" height="9.9802" fill="#D9D9D9"/>
<rect x="500" y="74.0198" width="281" height="9.9802" fill="url(#paint3_linear_1_2)"/>
<rect x="499.75" y="73.7698" width="281.5" height="10.4802" stroke="#504E4E" stroke-opacity="0.8" stroke-width="0.5"/>
<path d="M501.364 74.8515H779.636V83.1683H501.364V74.8515Z" fill="url(#paint4_linear_1_2)"/>
<path d="M502.728 75.6832H778.272V82.3366H502.728V75.6832Z" fill="#6C6C6C"/>
<path d="M501.364 74.8515L500 74.0198H781L779.636 74.8515H501.364Z" fill="#D9D9D9"/>
<path d="M501.364 83.1683L500 84H781L779.636 83.1683H501.364Z" fill="#635F5F"/>
<path d="M502.728 75.6832L501.364 74.8515H779.636L778.272 75.6832H502.728Z" fill="#595757"/>
<path d="M502.728 82.3366L501.364 83.1683H779.636L778.272 82.3366H502.728Z" fill="#D9D9D9"/>
<rect x="499.75" y="73.7698" width="281.5" height="10.4802" fill="#9E9E9E"/>
<rect x="499.75" y="73.7698" width="281.5" height="10.4802" stroke="#79747E" stroke-width="0.5"/>
<rect x="495" y="7" width="291" height="25" fill="url(#paint5_linear_1_2)"/>
<rect x="497" y="9.63158" width="287" height="19.7368" fill="url(#paint6_linear_1_2)"/>
<rect x="498" y="11" width="285" height="17" rx="1" fill="#868383"/>
<path d="M497 10L495 7H786L784 10H497Z" fill="#D9D9D9"/>
<path d="M497 29L495 32H786L784 29H497Z" fill="#4B4B4B"/>
<rect x="503" y="28" width="83" height="27" fill="url(#paint7_linear_1_2)"/>
<rect x="505" y="29.6364" width="79" height="23.7273" fill="url(#paint8_linear_1_2)"/>
<rect x="507" y="32.9091" width="75" height="18.8182" fill="#868383"/>
<rect x="502" y="28" width="84" height="0.818182" fill="#BEBEBE"/>
<rect x="502" y="29" width="85" height="2" fill="#4B4B4B"/>
<path d="M505 53.3636L503 55H586L584 53.3636H505Z" fill="#454545"/>
<path d="M507 51.7273L505 53.3636H584L582 51.7273H507Z" fill="#D9D9D9"/>
<path d="M507 32.9091L505 31.2727H584L582 32.9091H507Z" fill="#4B4B4B"/>
<rect x="599" y="28" width="83" height="27" fill="url(#paint9_linear_1_2)"/>
<rect x="601" y="29.6364" width="79" height="23.7273" fill="url(#paint10_linear_1_2)"/>
<rect x="603" y="32.9091" width="75" height="18.8182" fill="#868383"/>
<rect x="598" y="28" width="84" height="0.818182" fill="#BEBEBE"/>
<rect x="598" y="29" width="85" height="2" fill="#4B4B4B"/>
<path d="M601 53.3636L599 55H682L680 53.3636H601Z" fill="#454545"/>
<path d="M603 51.7273L601 53.3636H680L678 51.7273H603Z" fill="#D9D9D9"/>
<path d="M603 32.9091L601 31.2727H680L678 32.9091H603Z" fill="#4B4B4B"/>
<rect x="695" y="28" width="83" height="27" fill="url(#paint11_linear_1_2)"/>
<rect x="697" y="29.6364" width="79" height="23.7273" fill="url(#paint12_linear_1_2)"/>
<rect x="699" y="32.9091" width="75" height="18.8182" fill="#868383"/>
<rect x="694" y="28" width="84" height="0.818182" fill="#BEBEBE"/>
<rect x="694" y="29" width="85" height="2" fill="#4B4B4B"/>
<path d="M697 53.3636L695 55H778L776 53.3636H697Z" fill="#454545"/>
<path d="M699 51.7273L697 53.3636H776L774 51.7273H699Z" fill="#D9D9D9"/>
<path d="M699 32.9091L697 31.2727H776L774 32.9091H699Z" fill="#4B4B4B"/>
<g filter="url(#filter3_d_1_2)">
<path d="M0 624H234L308 720H0V624Z" fill="url(#paint13_linear_1_2)"/>
</g>
<path d="M4 629H232L298 715H4V629Z" fill="url(#paint14_linear_1_2)"/>
<path d="M232.493 628L232.793 628.392L298.793 714.392L300.028 716H3V628H232.493Z" stroke="#9F9F9F" stroke-opacity="0.8" stroke-width="2"/>
<path d="M6 631H230.219L293 713H6V631Z" fill="url(#paint15_linear_1_2)"/>
<rect x="16" y="651" width="206" height="12" fill="#D9D9D9"/>
<rect x="16" y="651" width="206" height="12" fill="url(#paint16_linear_1_2)"/>
<rect x="15.75" y="650.75" width="206.5" height="12.5" stroke="#504E4E" stroke-opacity="0.8" stroke-width="0.5"/>
<path d="M17 652H221V662H17V652Z" fill="url(#paint17_linear_1_2)"/>
<path d="M18 653H220V661H18V653Z" fill="#6C6C6C"/>
<path d="M17 652L16 651H222L221 652H17Z" fill="#D9D9D9"/>
<path d="M17 662L16 663H222L221 662H17Z" fill="#635F5F"/>
<path d="M18 653L17 652H221L220 653H18Z" fill="#595757"/>
<path d="M18 661L17 662H221L220 661H18Z" fill="#D9D9D9"/>
<rect x="16" y="683" width="206" height="12" fill="#D9D9D9"/>
<rect x="16" y="683" width="206" height="12" fill="url(#paint18_linear_1_2)"/>
<rect x="15.75" y="682.75" width="206.5" height="12.5" stroke="#504E4E" stroke-opacity="0.8" stroke-width="0.5"/>
<path d="M17 684H221V694H17V684Z" fill="url(#paint19_linear_1_2)"/>
<path d="M18 685H220V693H18V685Z" fill="#6C6C6C"/>
<path d="M17 684L16 683H222L221 684H17Z" fill="#D9D9D9"/>
<path d="M17 694L16 695H222L221 694H17Z" fill="#635F5F"/>
<path d="M18 685L17 684H221L220 685H18Z" fill="#595757"/>
<path d="M18 693L17 694H221L220 693H18Z" fill="#D9D9D9"/>
<path d="M2 627L0 624H234L233 627H2Z" fill="#D9D9D9"/>
<path d="M2.58974 717L0 720H308L302 717H2.58974Z" fill="#635F5F"/>
<path d="M6 631L4 629H232L230.226 631H6Z" fill="#595757"/>
<path d="M6 713L4 715H298L293 713H6Z" fill="#D9D9D9"/>
<path d="M0 596V624H234V596H0Z" fill="url(#paint20_linear_1_2)"/>
<path d="M232.483 597.5V622.5H1.51724V597.5H232.483Z" fill="url(#paint21_linear_1_2)" stroke="#A6A6A6"/>
<path d="M230.474 599.5V620.5H3.52586V599.5H230.474Z" fill="url(#paint22_linear_1_2)" stroke="black"/>
<rect x="113.474" y="598.5" width="6.0431" height="23" fill="url(#paint23_linear_1_2)" stroke="black"/>
<path d="M1.00862 597L0 596H234L232.991 597H1.00862Z" fill="#D9D9D9"/>
<path d="M117 598L119.017 599H113.974L115.991 598H117Z" fill="#D9D9D9"/>
<path d="M117 622L119.017 621H113.974L115.991 622H117Z" fill="#C0C0C0"/>
<rect x="115.991" y="598" width="1.00862" height="24" fill="#A6A6A6"/>
<path d="M1.00862 623L0 624H234L232.991 623H1.00862Z" fill="#635F5F"/>
<path d="M115.991 622V598L113.974 599V621L115.991 622Z" fill="url(#paint24_linear_1_2)"/>
<path d="M117 622V598L119.017 599V621L117 622Z" fill="url(#paint25_linear_1_2)"/>
<rect x="112" y="598" width="9" height="1" fill="#4A4848"/>
<rect x="112" y="621" width="8" height="1" fill="#C1C1C1"/>
<rect x="116" y="621" width="1" height="1" fill="#A6A6A6"/>
<rect x="116" y="598" width="1" height="1" fill="#A6A6A6"/>
<rect x="114" y="598" width="2" height="2" fill="#565454"/>
<rect x="117" y="620" width="2" height="2" fill="#565454"/>
<rect x="117" y="598" width="2" height="2" fill="#B9B9B9"/>
<rect x="114" y="620" width="2" height="2" fill="#B9B9B9"/>
<g filter="url(#filter4_d_1_2)">
<path d="M1280 624H1046L972 720H1280V624Z" fill="url(#paint26_linear_1_2)"/>
</g>
<path d="M1276 629H1048L982 715H1276V629Z" fill="url(#paint27_linear_1_2)"/>
<path d="M1047.51 628L1047.21 628.392L981.207 714.392L979.972 716H1277V628H1047.51Z" stroke="#9F9F9F" stroke-opacity="0.8" stroke-width="2"/>
<path d="M1274 631H1049.78L987 713H1274V631Z" fill="url(#paint28_linear_1_2)"/>
<path d="M1278 627L1280 624H1046L1047 627H1278Z" fill="#D9D9D9"/>
<path d="M1277.41 717L1280 720H972L978 717H1277.41Z" fill="#635F5F"/>
<path d="M1274 631L1276 629H1048L1049.77 631H1274Z" fill="#595757"/>
<path d="M1274 713L1276 715H982L987 713H1274Z" fill="#D9D9D9"/>
<g filter="url(#filter5_d_1_2)">
<path d="M0 59H173.981L229 0H0V59Z" fill="url(#paint29_linear_1_2)"/>
</g>
<path d="M3 56H172.5L221.5 3H3V56Z" fill="url(#paint30_linear_1_2)"/>
<path d="M172.938 57L173.234 56.6787L222.234 3.67871L223.786 2H2V57H172.938Z" stroke="#9F9F9F" stroke-opacity="0.8" stroke-width="2"/>
<path d="M4.46104 54.6979H171.169L217.847 4.30209H4.46104V54.6979Z" fill="url(#paint31_linear_1_2)"/>
<path d="M1 58L0 59H173.981L173 58H1Z" fill="#D9D9D9"/>
<path d="M1 1L0 0H229L226 1H1Z" fill="#635F5F"/>
<path d="M4.46104 54.6979L3 56H172.5L171.174 54.6979H4.46104Z" fill="#595757"/>
<path d="M4.46104 4.30208L3 3H221.5L217.847 4.30208H4.46104Z" fill="#D9D9D9"/>
<g filter="url(#filter6_d_1_2)">
<path d="M1280 59H1106.02L1051 0H1280V59Z" fill="url(#paint32_linear_1_2)"/>
</g>
<path d="M1277 55.9271L1107.5 56L1058 3H1277V55.9271Z" fill="url(#paint33_linear_1_2)"/>
<path d="M1107.07 57L1106.77 56.6826L1057.27 3.68261L1055.7 2H1278V56.9268H1277L1107.5 57H1107.07Z" stroke="#9F9F9F" stroke-opacity="0.8" stroke-width="2"/>
<path d="M1275.54 54.6979H1108.83L1062.15 4.30209H1275.54V54.6979Z" fill="url(#paint34_linear_1_2)"/>
<path d="M1278.51 57.1562L1280 59H1106.02L1106.5 58L1278.51 57.1562Z" fill="#D9D9D9"/>
<path d="M1279 1L1280 0H1051L1053.41 1H1279Z" fill="#635F5F"/>
<path d="M1275.54 54.6979L1277.03 55.9271H1107.51L1108.83 54.6979H1275.54Z" fill="#595757"/>
<path d="M1275.54 4.30208L1277.03 3.07292L1058 3L1062.15 4.30208H1275.54Z" fill="#D9D9D9"/>
<rect x="1108" y="39" width="163" height="12" fill="#D9D9D9"/>
<rect x="1108" y="39" width="163" height="12" fill="url(#paint35_linear_1_2)"/>
<rect x="1107.75" y="38.75" width="163.5" height="12.5" stroke="#504E4E" stroke-opacity="0.8" stroke-width="0.5"/>
<path d="M1108.79 40H1270.21V50H1108.79V40Z" fill="url(#paint36_linear_1_2)"/>
<path d="M1109.58 41H1269.42V49H1109.58V41Z" fill="#6C6C6C"/>
<path d="M1108.79 40L1108 39H1271L1270.21 40H1108.79Z" fill="#D9D9D9"/>
<path d="M1108.79 50L1108 51H1271L1270.21 50H1108.79Z" fill="#635F5F"/>
<path d="M1109.58 41L1108.79 40H1270.21L1269.42 41H1109.58Z" fill="#595757"/>
<path d="M1109.58 49L1108.79 50H1270.21L1269.42 49H1109.58Z" fill="#D9D9D9"/>
</g>
<defs>
<filter id="filter0_d_1_2" x="351" y="0" width="578" height="88.2574" filterUnits="userSpaceOnUse" color-interpolation-filters="sRGB">
<feFlood flood-opacity="0" result="BackgroundImageFix"/>
<feColorMatrix in="SourceAlpha" type="matrix" values="0 0 0 0 0 0 0 0 0 0 0 0 0 0 0 0 0 0 127 0" result="hardAlpha"/>
<feOffset dy="4"/>
<feGaussianBlur stdDeviation="2"/>
<feComposite in2="hardAlpha" operator="out"/>
<feColorMatrix type="matrix" values="0 0 0 0 0 0 0 0 0 0 0 0 0 0 0 0 0 0 0.25 0"/>
<feBlend mode="normal" in2="BackgroundImageFix" result="effect1_dropShadow_1_2"/>
<feBlend mode="normal" in="SourceGraphic" in2="effect1_dropShadow_1_2" result="shape"/>
</filter>
<filter id="filter1_d_1_2" x="358" y="1.66337" width="563" height="85.3465" filterUnits="userSpaceOnUse" color-interpolation-filters="sRGB">
<feFlood flood-opacity="0" result="BackgroundImageFix"/>
<feColorMatrix in="SourceAlpha" type="matrix" values="0 0 0 0 0 0 0 0 0 0 0 0 0 0 0 0 0 0 127 0" result="hardAlpha"/>
<feOffset dy="4"/>
<feGaussianBlur stdDeviation="2"/>
<feComposite in2="hardAlpha" operator="out"/>
<feColorMatrix type="matrix" values="0 0 0 0 0 0 0 0 0 0 0 0 0 0 0 0 0 0 0.25 0"/>
<feBlend mode="normal" in2="BackgroundImageFix" result="effect1_dropShadow_1_2"/>
<feBlend mode="normal" in="SourceGraphic" in2="effect1_dropShadow_1_2" result="shape"/>
</filter>
<filter id="filter2_d_1_2" x="361" y="2.49505" width="557" height="82.8515" filterUnits="userSpaceOnUse" color-interpolation-filters="sRGB">
<feFlood flood-opacity="0" result="BackgroundImageFix"/>
<feColorMatrix in="SourceAlpha" type="matrix" values="0 0 0 0 0 0 0 0 0 0 0 0 0 0 0 0 0 0 127 0" result="hardAlpha"/>
<feOffset dy="4"/>
<feGaussianBlur stdDeviation="2"/>
<feComposite in2="hardAlpha" operator="out"/>
<feColorMatrix type="matrix" values="0 0 0 0 0 0 0 0 0 0 0 0 0 0 0 0 0 0 0.25 0"/>
<feBlend mode="normal" in2="BackgroundImageFix" result="effect1_dropShadow_1_2"/>
<feBlend mode="normal" in="SourceGraphic" in2="effect1_dropShadow_1_2" result="shape"/>
</filter>
<filter id="filter3_d_1_2" x="-4" y="624" width="316" height="104" filterUnits="userSpaceOnUse" color-interpolation-filters="sRGB">
<feFlood flood-opacity="0" result="BackgroundImageFix"/>
<feColorMatrix in="SourceAlpha" type="matrix" values="0 0 0 0 0 0 0 0 0 0 0 0 0 0 0 0 0 0 127 0" result="hardAlpha"/>
<feOffset dy="4"/>
<feGaussianBlur stdDeviation="2"/>
<feComposite in2="hardAlpha" operator="out"/>
<feColorMatrix type="matrix" values="0 0 0 0 0 0 0 0 0 0 0 0 0 0 0 0 0 0 0.25 0"/>
<feBlend mode="normal" in2="BackgroundImageFix" result="effect1_dropShadow_1_2"/>
<feBlend mode="normal" in="SourceGraphic" in2="effect1_dropShadow_1_2" result="shape"/>
</filter>
<filter id="filter4_d_1_2" x="968" y="624" width="316" height="104" filterUnits="userSpaceOnUse" color-interpolation-filters="sRGB">
<feFlood flood-opacity="0" result="BackgroundImageFix"/>
<feColorMatrix in="SourceAlpha" type="matrix" values="0 0 0 0 0 0 0 0 0 0 0 0 0 0 0 0 0 0 127 0" result="hardAlpha"/>
<feOffset dy="4"/>
<feGaussianBlur stdDeviation="2"/>
<feComposite in2="hardAlpha" operator="out"/>
<feColorMatrix type="matrix" values="0 0 0 0 0 0 0 0 0 0 0 0 0 0 0 0 0 0 0.25 0"/>
<feBlend mode="normal" in2="BackgroundImageFix" result="effect1_dropShadow_1_2"/>
<feBlend mode="normal" in="SourceGraphic" in2="effect1_dropShadow_1_2" result="shape"/>
</filter>
<filter id="filter5_d_1_2" x="-4" y="0" width="237" height="67" filterUnits="userSpaceOnUse" color-interpolation-filters="sRGB">
<feFlood flood-opacity="0" result="BackgroundImageFix"/>
<feColorMatrix in="SourceAlpha" type="matrix" values="0 0 0 0 0 0 0 0 0 0 0 0 0 0 0 0 0 0 127 0" result="hardAlpha"/>
<feOffset dy="4"/>
<feGaussianBlur stdDeviation="2"/>
<feComposite in2="hardAlpha" operator="out"/>
<feColorMatrix type="matrix" values="0 0 0 0 0 0 0 0 0 0 0 0 0 0 0 0 0 0 0.25 0"/>
<feBlend mode="normal" in2="BackgroundImageFix" result="effect1_dropShadow_1_2"/>
<feBlend mode="normal" in="SourceGraphic" in2="effect1_dropShadow_1_2" result="shape"/>
</filter>
<filter id="filter6_d_1_2" x="1047" y="0" width="237" height="67" filterUnits="userSpaceOnUse" color-interpolation-filters="sRGB">
<feFlood flood-opacity="0" result="BackgroundImageFix"/>
<feColorMatrix in="SourceAlpha" type="matrix" values="0 0 0 0 0 0 0 0 0 0 0 0 0 0 0 0 0 0 127 0" result="hardAlpha"/>
<feOffset dy="4"/>
<feGaussianBlur stdDeviation="2"/>
<feComposite in2="hardAlpha" operator="out"/>
<feColorMatrix type="matrix" values="0 0 0 0 0 0 0 0 0 0 0 0 0 0 0 0 0 0 0.25 0"/>
<feBlend mode="normal" in2="BackgroundImageFix" result="effect1_dropShadow_1_2"/>
<feBlend mode="normal" in="SourceGraphic" in2="effect1_dropShadow_1_2" result="shape"/>
</filter>
<linearGradient id="paint0_linear_1_2" x1="640" y1="79.8416" x2="640" y2="3.16023e-06" gradientUnits="userSpaceOnUse">
<stop stop-color="#4A4747"/>
<stop offset="1" stop-color="#C5C5C5"/>
</linearGradient>
<linearGradient id="paint1_linear_1_2" x1="638.489" y1="79.0099" x2="638.489" y2="1.66336" gradientUnits="userSpaceOnUse">
<stop stop-color="#C5C5C5"/>
<stop offset="1" stop-color="#4A4747"/>
</linearGradient>
<linearGradient id="paint2_linear_1_2" x1="638.5" y1="77.3465" x2="638.5" y2="2.49504" gradientUnits="userSpaceOnUse">
<stop stop-color="#C5C5C5"/>
<stop offset="1" stop-color="#4A4747"/>
</linearGradient>
<linearGradient id="paint3_linear_1_2" x1="640.5" y1="74.0198" x2="640.5" y2="84" gradientUnits="userSpaceOnUse">
<stop stop-color="#C5C5C5"/>
<stop offset="1" stop-color="#4A4747"/>
</linearGradient>
<linearGradient id="paint4_linear_1_2" x1="640.5" y1="75.1287" x2="640.5" y2="82.8911" gradientUnits="userSpaceOnUse">
<stop stop-color="#4A4747"/>
<stop offset="1" stop-color="#C5C5C5"/>
</linearGradient>
<linearGradient id="paint5_linear_1_2" x1="640.5" y1="7" x2="640.5" y2="32" gradientUnits="userSpaceOnUse">
<stop stop-color="#C5C5C5"/>
<stop offset="1" stop-color="#4A4747"/>
</linearGradient>
<linearGradient id="paint6_linear_1_2" x1="640.5" y1="9.63158" x2="640.5" y2="29.3684" gradientUnits="userSpaceOnUse">
<stop stop-color="#4A4747"/>
<stop offset="1" stop-color="#C5C5C5"/>
</linearGradient>
<linearGradient id="paint7_linear_1_2" x1="544.5" y1="28" x2="544.5" y2="55" gradientUnits="userSpaceOnUse">
<stop stop-color="#C5C5C5"/>
<stop offset="1" stop-color="#4A4747"/>
</linearGradient>
<linearGradient id="paint8_linear_1_2" x1="544.5" y1="29.6364" x2="544.5" y2="53.3636" gradientUnits="userSpaceOnUse">
<stop stop-color="#4A4747"/>
<stop offset="1" stop-color="#C5C5C5"/>
</linearGradient>
<linearGradient id="paint9_linear_1_2" x1="640.5" y1="28" x2="640.5" y2="55" gradientUnits="userSpaceOnUse">
<stop stop-color="#C5C5C5"/>
<stop offset="1" stop-color="#4A4747"/>
</linearGradient>
<linearGradient id="paint10_linear_1_2" x1="640.5" y1="29.6364" x2="640.5" y2="53.3636" gradientUnits="userSpaceOnUse">
<stop stop-color="#4A4747"/>
<stop offset="1" stop-color="#C5C5C5"/>
</linearGradient>
<linearGradient id="paint11_linear_1_2" x1="736.5" y1="28" x2="736.5" y2="55" gradientUnits="userSpaceOnUse">
<stop stop-color="#C5C5C5"/>
<stop offset="1" stop-color="#4A4747"/>
</linearGradient>
<linearGradient id="paint12_linear_1_2" x1="736.5" y1="29.6364" x2="736.5" y2="53.3636" gradientUnits="userSpaceOnUse">
<stop stop-color="#4A4747"/>
<stop offset="1" stop-color="#C5C5C5"/>
</linearGradient>
<linearGradient id="paint13_linear_1_2" x1="154" y1="624" x2="154" y2="720" gradientUnits="userSpaceOnUse">
<stop stop-color="#C5C5C5"/>
<stop offset="1" stop-color="#4A4747"/>
</linearGradient>
<linearGradient id="paint14_linear_1_2" x1="151" y1="629" x2="151" y2="715" gradientUnits="userSpaceOnUse">
<stop stop-color="#4A4747"/>
<stop offset="1" stop-color="#C5C5C5"/>
</linearGradient>
<linearGradient id="paint15_linear_1_2" x1="309.572" y1="672.24" x2="-31.7606" y2="672.49" gradientUnits="userSpaceOnUse">
<stop stop-color="#272727"/>
<stop offset="0.225962" stop-color="#5A5A5A"/>
</linearGradient>
<linearGradient id="paint16_linear_1_2" x1="119" y1="651" x2="119" y2="663" gradientUnits="userSpaceOnUse">
<stop stop-color="#C5C5C5"/>
<stop offset="1" stop-color="#4A4747"/>
</linearGradient>
<linearGradient id="paint17_linear_1_2" x1="119" y1="652.333" x2="119" y2="661.667" gradientUnits="userSpaceOnUse">
<stop stop-color="#4A4747"/>
<stop offset="1" stop-color="#C5C5C5"/>
</linearGradient>
<linearGradient id="paint18_linear_1_2" x1="119" y1="683" x2="119" y2="695" gradientUnits="userSpaceOnUse">
<stop stop-color="#C5C5C5"/>
<stop offset="1" stop-color="#4A4747"/>
</linearGradient>
<linearGradient id="paint19_linear_1_2" x1="119" y1="684.333" x2="119" y2="693.667" gradientUnits="userSpaceOnUse">
<stop stop-color="#4A4747"/>
<stop offset="1" stop-color="#C5C5C5"/>
</linearGradient>
<linearGradient id="paint20_linear_1_2" x1="117" y1="596" x2="117" y2="624" gradientUnits="userSpaceOnUse">
<stop stop-color="#C5C5C5"/>
<stop offset="1" stop-color="#4A4747"/>
</linearGradient>
<linearGradient id="paint21_linear_1_2" x1="117" y1="598" x2="117" y2="622" gradientUnits="userSpaceOnUse">
<stop stop-color="#4A4747"/>
<stop offset="1" stop-color="#C5C5C5"/>
</linearGradient>
<linearGradient id="paint22_linear_1_2" x1="244.137" y1="610.064" x2="-26.9653" y2="610.13" gradientUnits="userSpaceOnUse">
<stop stop-color="#272727"/>
<stop offset="0.0817308" stop-color="#414141"/>
<stop offset="0.519231" stop-color="#5A5A5A"/>
<stop offset="0.918269" stop-color="#343434"/>
<stop offset="1" stop-color="#272727"/>
</linearGradient>
<linearGradient id="paint23_linear_1_2" x1="116.496" y1="599" x2="116.496" y2="621" gradientUnits="userSpaceOnUse">
<stop stop-color="#C5C5C5"/>
<stop offset="1" stop-color="#4A4747"/>
</linearGradient>
<linearGradient id="paint24_linear_1_2" x1="114.983" y1="598" x2="114.983" y2="622" gradientUnits="userSpaceOnUse">
<stop stop-color="#4A4747"/>
<stop offset="1" stop-color="#C5C5C5"/>
</linearGradient>
<linearGradient id="paint25_linear_1_2" x1="118.009" y1="622" x2="118.009" y2="598" gradientUnits="userSpaceOnUse">
<stop stop-color="#4A4747"/>
<stop offset="1" stop-color="#C5C5C5"/>
</linearGradient>
<linearGradient id="paint26_linear_1_2" x1="1126" y1="624" x2="1126" y2="720" gradientUnits="userSpaceOnUse">
<stop stop-color="#C5C5C5"/>
<stop offset="1" stop-color="#4A4747"/>
</linearGradient>
<linearGradient id="paint27_linear_1_2" x1="1129" y1="629" x2="1129" y2="715" gradientUnits="userSpaceOnUse">
<stop stop-color="#4A4747"/>
<stop offset="1" stop-color="#C5C5C5"/>
</linearGradient>
<linearGradient id="paint28_linear_1_2" x1="970.428" y1="672.24" x2="1311.76" y2="672.49" gradientUnits="userSpaceOnUse">
<stop stop-color="#272727"/>
<stop offset="0.225962" stop-color="#5A5A5A"/>
</linearGradient>
<linearGradient id="paint29_linear_1_2" x1="114.5" y1="59" x2="114.5" y2="0" gradientUnits="userSpaceOnUse">
<stop stop-color="#C5C5C5"/>
<stop offset="1" stop-color="#4A4747"/>
</linearGradient>
<linearGradient id="paint30_linear_1_2" x1="112.269" y1="55.9271" x2="112.269" y2="3.07292" gradientUnits="userSpaceOnUse">
<stop stop-color="#4A4747"/>
<stop offset="1" stop-color="#C5C5C5"/>
</linearGradient>
<linearGradient id="paint31_linear_1_2" x1="230.169" y1="29.3527" x2="-23.6142" y2="29.1272" gradientUnits="userSpaceOnUse">
<stop stop-color="#272727"/>
<stop offset="0.225962" stop-color="#5A5A5A"/>
</linearGradient>
<linearGradient id="paint32_linear_1_2" x1="1165.5" y1="59" x2="1165.5" y2="0" gradientUnits="userSpaceOnUse">
<stop stop-color="#C5C5C5"/>
<stop offset="1" stop-color="#4A4747"/>
</linearGradient>
<linearGradient id="paint33_linear_1_2" x1="1167.73" y1="55.9271" x2="1167.73" y2="3.07291" gradientUnits="userSpaceOnUse">
<stop stop-color="#4A4747"/>
<stop offset="1" stop-color="#C5C5C5"/>
</linearGradient>
<linearGradient id="paint34_linear_1_2" x1="1049.83" y1="29.3527" x2="1303.61" y2="29.1272" gradientUnits="userSpaceOnUse">
<stop stop-color="#272727"/>
<stop offset="0.225962" stop-color="#5A5A5A"/>
</linearGradient>
<linearGradient id="paint35_linear_1_2" x1="1189.5" y1="39" x2="1189.5" y2="51" gradientUnits="userSpaceOnUse">
<stop stop-color="#C5C5C5"/>
<stop offset="1" stop-color="#4A4747"/>
</linearGradient>
<linearGradient id="paint36_linear_1_2" x1="1189.5" y1="40.3333" x2="1189.5" y2="49.6666" gradientUnits="userSpaceOnUse">
<stop stop-color="#4A4747"/>
<stop offset="1" stop-color="#C5C5C5"/>
</linearGradient>
<clipPath id="clip0_1_2">
<rect width="1280" height="720" fill="white"/>
</clipPath>
</defs>
</svg>
