<svg width="1280" height="720" viewBox="0 0 1280 720" fill="none" xmlns="http://www.w3.org/2000/svg">
<rect x="29.5" y="51.5" width="301" height="201" rx="8.5" fill="url(#paint0_linear_31_2)" stroke="#364058"/>
<g filter="url(#filter0_di_31_2)">
<rect x="38" y="60" width="284" height="184" rx="6" fill="#9E9E9E"/>
<rect x="38.5" y="60.5" width="283" height="183" rx="5.5" stroke="url(#paint1_linear_31_2)"/>
</g>
<rect x="29.75" y="369.75" width="300.5" height="200.5" fill="url(#paint2_linear_31_2)" stroke="#3B3B3B" stroke-width="0.5"/>
<g filter="url(#filter1_di_31_2)">
<rect x="33" y="373" width="294" height="194" fill="#9E9E9E"/>
<rect x="33.5" y="373.5" width="293" height="193" stroke="url(#paint3_linear_31_2)"/>
</g>
<rect x="343.5" y="140.5" width="63" height="23" rx="7.5" fill="url(#paint4_linear_31_2)" stroke="#2C2C2C"/>
<g filter="url(#filter2_dd_31_2)">
<rect x="345" y="142" width="60" height="20" rx="6" fill="url(#paint5_linear_31_2)"/>
<rect x="345.05" y="142.05" width="59.9" height="19.9" rx="5.95" stroke="#EFE7E7" stroke-width="0.1"/>
</g>
<g filter="url(#filter3_f_31_2)">
<ellipse cx="374" cy="158" rx="14" ry="1" fill="black" fill-opacity="0.2"/>
</g>
<path d="M352 92.5H400C404.142 92.5 407.5 95.8579 407.5 100V115.5H344.5V100C344.5 95.8579 347.858 92.5 352 92.5Z" fill="url(#paint6_linear_31_2)" stroke="#2C2C2C"/>
<g filter="url(#filter4_dd_31_2)">
<path d="M346 100C346 96.6863 348.686 94 352 94H400C403.314 94 406 96.6863 406 100V114H346V100Z" fill="url(#paint7_linear_31_2)"/>
<path d="M352 94.0498H400C403.286 94.0498 405.95 96.7139 405.95 100V113.95H346.05V100C346.05 96.7139 348.714 94.0498 352 94.0498Z" stroke="#EFE7E7" stroke-width="0.1"/>
</g>
<g filter="url(#filter5_f_31_2)">
<ellipse cx="375" cy="110" rx="14" ry="1" fill="black" fill-opacity="0.2"/>
</g>
<rect x="439.5" y="141.5" width="63" height="23" rx="7.5" fill="url(#paint8_linear_31_2)" stroke="#2C2C2C"/>
<g filter="url(#filter6_dd_31_2)">
<rect x="441" y="143" width="60" height="20" rx="6" fill="url(#paint9_linear_31_2)"/>
<rect x="441.15" y="143.15" width="59.7" height="19.7" rx="5.85" stroke="#EFE7E7" stroke-width="0.3"/>
</g>
<g filter="url(#filter7_f_31_2)">
<ellipse cx="470" cy="159" rx="14" ry="1" fill="#0D44CF"/>
</g>
<path d="M448 93.5H496C500.142 93.5 503.5 96.8579 503.5 101V116.5H440.5V101C440.5 96.8579 443.858 93.5 448 93.5Z" fill="url(#paint10_linear_31_2)" stroke="#2C2C2C"/>
<path d="M474.415 118.984C467.303 118.989 459.517 119.02 452.376 118.98C451.5 118.975 451.56 118.908 451.314 118.899C450.641 118.874 450.237 118.954 449.747 118.948C447.364 118.92 445.136 118.908 442.799 118.883C440.391 118.857 441.53 118.648 440.693 118.597C439.059 118.498 440.449 118.77 439.807 118.831C439.538 118.829 439.269 118.826 439 118.823L438.186 118.832L438.177 118C438.194 116.391 438.219 114.774 438.245 113.166C438.27 113.624 438.295 114.082 438.319 114.546C438.324 113.727 438.366 112.557 438.437 113.927C438.457 113.624 438.48 113.341 438.499 113.03C438.4 112.945 438.392 111.496 438.333 111.364C438.274 111.231 438.288 112.046 438.283 112.041C438.21 111.987 438.31 108.646 438.318 108.405C438.34 107.768 438.462 108.327 438.455 107.785C438.441 106.853 438.191 107.474 438.523 106.212C438.415 105.711 438.471 105.667 438.479 105.031C438.48 104.948 438.417 105.013 438.416 104.976C438.369 104.014 438.486 104.753 438.492 104.748C438.599 104.661 438.551 103.629 438.562 103.411C438.585 102.92 438.606 102.453 438.626 102C438.747 99.8683 439.308 98.0439 440.7 96.0799C441.034 95.5371 442.368 94.1198 442.907 93.8027C443.409 93.4624 443.189 93.7154 443.469 93.5698C443.79 93.148 444.208 92.8384 445.31 92.5255C445.661 92.2529 445.643 92.3545 446.419 92.1106C447.06 91.9044 448.241 91.5819 449 91.7354C448.14 91.7435 448.227 91.7958 447.284 91.9736C447.128 92.0029 446.227 92.1775 445.449 92.499C444.665 92.8083 444.021 93.2298 444.162 93.2279C444.3 93.2159 445.253 92.6993 445.304 92.7085C445.558 92.6935 445.031 92.99 444.548 93.2023C444.659 93.1286 444.795 93.0452 444.919 92.9723C443.8 93.4159 444.712 93.3598 443.763 93.5325C443.646 93.5587 443.661 93.4992 443.48 93.5661C443.457 93.6017 443.673 93.5132 443.512 93.6273C443.348 93.7417 442.989 93.9 442.986 93.9911C442.975 94.1172 443.627 93.6085 443.689 93.5872C443.689 93.5863 443.689 93.5854 443.689 93.5845C444.182 93.337 443.218 93.9563 443.189 94.0083C442.945 94.2702 443.16 94.1599 442.787 94.5289C442.572 94.7359 442.014 95.2468 441.838 95.4652C441.66 95.677 441.984 95.3903 441.867 95.5348C441.75 95.6784 441.572 95.8304 441.446 96.0087C441.392 96.0851 441.437 96.1143 441.411 96.1508C441.139 96.5479 441.236 96.2266 440.989 96.5914C440.822 96.8267 440.446 97.7038 440.797 97.1536C440.647 97.4278 440.512 97.7006 440.389 97.9847C440.486 97.8147 440.587 97.6393 440.694 97.482C440.397 97.9826 440.38 98.2655 440.253 98.6011C440.13 98.9386 439.924 99.215 439.873 99.617C439.763 100.462 440.266 98.4279 440.448 98.2173C440.495 98.1283 440.42 98.5171 440.403 98.5728C440.314 98.8203 440.156 99.0947 440.1 99.2916C439.904 99.9953 439.901 100.451 439.847 101.135C439.828 101.415 439.82 101.704 439.826 102C439.873 104.353 439.91 107.054 439.925 109.177C439.932 110.075 439.841 110.616 439.843 111.019C439.849 111.962 439.929 112.078 439.933 112.901C439.939 114.125 439.87 115.851 439.855 116.873C439.849 117.302 439.875 117.707 439.897 118L439 117.103C439.19 117.089 439.333 117.077 439.405 117.076C441.963 117.049 445.075 117.051 447.195 117.05C448.192 117.049 448.665 117.135 448.871 117.133C449.756 117.122 449.519 117.048 450.236 117.056C450.624 117.06 450.696 117.131 450.748 117.133C451.205 117.157 451.296 117.064 451.652 117.061C453.702 117.044 455.676 117.104 457.705 117.113C457.852 117.114 457.839 117.155 457.934 117.153C458.344 117.143 458.154 117.078 458.581 117.073C459.472 117.063 460.385 117.074 461.329 117.082C461.423 117.083 461.465 117.136 461.678 117.136C461.893 117.136 462.055 117.086 462.391 117.089C463.269 117.096 464.136 117.155 465.066 117.159C465.22 117.159 465.411 117.096 465.642 117.097C466.366 117.099 467.439 117.156 468.06 117.158C470.107 117.165 471.996 117.129 473.925 117.128C474.379 117.128 474.78 117.187 475.016 117.188C475.548 117.191 475.147 117.136 475.685 117.136C480.085 117.134 484.502 117.16 488.954 117.155C490.702 117.153 492.831 117.096 494.52 117.112C495.223 117.119 495.35 117.195 495.847 117.196C496.734 117.197 496.894 117.099 497.829 117.089C498.575 117.081 499.431 117.179 500.207 117.173C500.983 117.167 501.341 117.072 502.233 117.06C502.968 117.051 503.993 117.094 504.793 117.087C504.862 117.087 504.931 117.086 505 117.086L504.086 118C504.039 112.643 504.006 107.345 504.022 102C504.031 100.285 503.548 98.5723 502.624 97.1052C501.387 95.0847 499.077 93.4916 496.663 92.9855C496.436 92.9404 496.804 92.8932 496.06 92.8135C495.796 92.7909 495.461 92.7979 495 92.8226C494.74 92.8358 494.443 92.846 494.099 92.8473C488.122 92.8707 481.746 92.7008 475.667 92.7344C466.563 92.7851 457.127 93.4408 449.215 92.4812C448.827 92.4341 449.038 92.2032 449.27 92.1376C449.486 92.1845 449.685 92.2402 449.911 92.2931C450.196 92.0046 450.145 92.0797 451.199 92.1056C451.848 92.1217 451.33 91.9983 451.676 91.9633C452.124 91.918 454.229 91.7755 453.825 91.9666C453.955 91.9335 454.075 91.9017 454.203 91.8693C455.727 91.8404 457.207 91.7925 458.698 91.7377C458.956 91.7281 458.967 91.6682 459.233 91.6586C459.948 91.6325 460.515 91.6719 461.251 91.6658C461.651 91.6626 461.706 91.5933 462.23 91.5977C462.753 91.6022 462.742 91.6957 463.456 91.594C462.991 91.4767 465.065 91.5618 465.803 91.5546C465.91 91.5537 466.788 91.4483 467.255 91.4604C467.724 91.4723 468.435 91.5396 469.159 91.5014C469.499 91.4834 469.705 91.4013 470.071 91.3967C470.329 91.3934 470.638 91.4664 470.964 91.4694C471.291 91.4724 471.996 91.4125 472.125 91.4115C472.592 91.4076 472.077 91.4589 472.396 91.4615C473.937 91.4731 475.728 91.5006 477.247 91.4661C477.433 91.4619 477.175 91.4015 477.2 91.3995C478.468 91.3253 477.791 91.404 478.133 91.4582C478.465 91.5105 480.892 91.482 480.91 91.3769C480.984 91.5085 481.524 91.408 481.664 91.4041C482.209 91.3892 482.102 91.503 482.631 91.4678C482.825 91.455 482.447 91.378 482.655 91.3803C483.171 91.3859 483.634 91.5095 484.32 91.5219C484.486 91.5249 484.54 91.4699 484.834 91.4717C485.129 91.4736 486.365 91.541 485.794 91.4248C486.544 91.5179 486.695 91.4668 487.566 91.4694C487.787 91.4702 488.072 91.5589 488.541 91.5314C488.7 91.5221 488.696 91.4365 488.935 91.4358C489.482 91.434 489.997 91.5225 490.691 91.526C491.99 91.5328 493.372 91.4706 494.725 91.4927C494.861 91.495 494.935 91.5082 495 91.524C495.117 91.552 495.209 91.5833 495.558 91.6012C495.64 91.6015 496.318 91.5805 496.7 91.6563C496.935 91.6799 498.093 92.0195 498.315 92.1184C498.691 92.2542 498.788 92.2071 498.986 92.3045C499.554 92.6027 499.035 92.4946 499.797 92.6816C499.979 92.8771 500.368 93.0932 500.427 93.2668C500.712 93.2977 500.927 93.5796 501.345 93.8511C501.762 94.1218 502.232 94.233 502.141 94.5064C502.34 94.6342 503.055 95.3407 503.155 95.4794C503.471 95.8664 503.251 95.6982 503.48 95.9954C503.518 96.0492 503.524 95.9605 503.755 96.3181C503.952 96.528 504.836 98.3766 504.825 98.5128C505.187 99.8576 504.55 97.8046 504.327 97.5774C504.317 97.5239 504.307 97.4706 504.295 97.4139C504.035 96.8584 504.1 97.2206 504.199 97.4768C504.299 97.732 504.546 98.1843 504.589 98.4127C504.61 98.5262 504.465 98.5036 504.354 98.1846C504.45 98.5353 504.226 98.0942 504.244 98.2412C504.296 98.3925 504.734 99.9272 504.78 99.9301C504.721 99.6343 504.623 99.2724 504.534 98.9819C504.522 98.5477 505.375 99.6171 505.321 100.813C505.265 101.616 505.11 100.413 505.254 102C505.258 102.073 505.262 102.151 505.267 102.236C505.269 102.155 505.271 102.076 505.273 102C505.278 101.797 505.28 101.611 505.273 101.414C505.361 101.383 505.297 101.761 505.306 102C505.307 102.02 505.308 102.038 505.311 102.056C505.315 102.088 505.324 102.051 505.336 102C505.36 101.884 505.393 101.69 505.413 102C505.414 102.022 505.415 102.048 505.416 102.076C505.279 102.568 505.417 102.946 505.419 103.771C505.394 103.542 505.37 103.312 505.345 103.083C505.246 104.477 505.213 101.24 505.157 103.949C505.153 103.623 505.154 103.299 505.147 102.971C505.097 103.13 504.949 102.876 504.917 103.018C504.835 103.391 504.885 103.943 504.878 104.398C504.875 104.597 504.835 104.473 504.834 104.49C504.83 104.763 504.889 104.703 504.892 104.942C504.897 105.243 504.84 106.112 504.847 106.253C504.863 106.618 504.979 106.011 504.987 106.046C505.043 106.279 504.997 106.753 505.07 106.729C505.02 105.586 505.084 102.292 505.205 105.272C505.324 104.45 505.487 104.688 505.5 105.869C505.51 106.846 505.445 106.215 505.373 106.724C505.364 106.79 505.33 108.098 505.381 108.165C505.264 108.113 505.16 108.539 505.039 108.253C505.022 108.211 505.029 107.674 504.931 107.861C504.883 107.955 504.777 108.224 504.715 108.181C504.758 108.291 504.806 108.406 504.851 108.519C504.864 109.323 504.817 109.438 504.737 109.878C504.77 109.858 504.912 109.451 504.869 110.068C504.866 110.1 504.815 110.127 504.79 110.441C504.74 111.075 504.724 111.207 504.576 110.721C504.66 112.034 504.495 112.317 504.543 113.663C504.734 113.395 504.687 112.922 504.65 111.689C504.696 111.636 504.741 111.61 504.787 111.555C504.683 113.196 504.694 112.385 504.786 113.315C504.809 113.543 504.785 114.756 504.914 114.351C504.944 114.255 504.94 113.502 504.988 113.588C504.997 113.605 505.02 114.521 505.008 114.602C504.856 115.616 504.749 113.804 504.805 116.596C504.807 116.673 504.862 116.7 504.87 116.85C504.885 117.133 504.82 117.137 504.835 117.389C504.845 117.556 504.886 117.767 504.89 118L505 117.89C504.881 117.892 504.757 117.883 504.629 117.856C504.263 117.779 504.545 117.72 505 117.692L504.692 118C504.667 117.591 504.667 117.043 504.704 116.698C504.636 116.593 504.592 117.182 504.564 118L505 117.564C503.514 117.513 501.272 117.515 501.063 117.525C499.653 117.596 502 117.555 502.121 117.608C502.171 117.631 502.146 117.914 502.74 117.73C502.915 117.676 502.181 117.604 502.619 117.574C503.058 117.543 502.884 117.627 502.916 117.633C503.025 117.653 503.491 117.622 503.551 117.634C504.482 117.814 504.396 118.085 503.163 117.684C502.626 117.775 503.859 117.919 503.191 117.981C502.38 118.056 501.788 117.926 501.686 117.92C500.463 117.851 501.873 118.04 500.379 117.98C499.548 117.946 501.624 117.854 499.725 117.867C498.136 117.877 498.994 117.943 498.879 118.092C498.851 118.127 497.98 118.17 499.166 118.155C499.2 118.116 499.263 118.065 499.338 118.029C499.629 118.057 500.114 118.252 500.268 118.259C501.023 118.291 500.986 118.19 501.431 118.309C501.114 118.179 501.631 118.258 501.825 118.23C502.545 118.129 501.601 118.091 503.218 118.221C503.007 118.16 502.817 118.1 502.612 118.039C502.806 118.037 503.001 118.035 503.195 118.033C503.484 118.168 504.515 118.15 503.581 118.286C504.271 118.309 504.708 118.308 505 118.278L505.281 118.275L505.278 118C505.26 117.817 505.231 117.691 505.19 117.596C505.17 117.55 505.162 117.381 505.16 117.183C505.131 117.22 505.04 117.268 505.029 117.237C504.931 116.958 505.1 116.525 505.165 116.672C505.168 116.534 505.172 116.424 505.173 116.385C505.183 116.14 505.242 116.621 505.262 116.422C505.268 116.356 505.256 115.665 505.279 115.651C505.432 115.568 505.322 116.706 505.41 114.42C505.272 114.365 505.302 115.427 505.155 115.154C504.996 114.861 505.209 114.264 505.014 114.133C505.046 114.085 505.073 114.064 505.109 114.022C505.025 113.097 505.187 113.084 505.222 112.802C505.292 112.253 505.282 109.73 505.141 111.996C505.127 111.664 505.121 111.326 505.109 110.996C505.399 110.921 505.283 111.122 505.328 109.534C505.337 109.185 505.465 109.071 505.313 108.728C505.462 108.775 505.372 107.74 505.39 107.644C505.508 107.025 505.671 109.323 505.408 109.618C505.511 110.006 505.375 110.005 505.393 110.438C505.419 111.063 505.445 111.15 505.346 111.893C505.486 112.624 505.407 109.031 505.594 111.209C505.672 112.123 505.736 114.883 505.786 118L505.795 118.777L505 118.786C500.683 118.855 495.684 118.897 493.965 118.913C488.603 118.963 485.784 118.997 480.967 118.988C480.492 118.987 476.905 119.001 477.651 118.838C477.758 118.815 479.3 118.753 477.977 118.626C478.246 118.701 477.468 118.75 477.403 118.758C475.906 118.938 476.773 118.982 474.415 118.984ZM467.427 117.534C470.504 117.571 468.244 117.462 468.883 117.217C468.488 117.216 468.094 117.215 467.7 117.215C467.803 117.23 467.906 117.246 468.009 117.261C468.01 117.261 468.01 117.261 468.011 117.261C467.817 117.352 467.621 117.443 467.427 117.534ZM441.196 96.8134C441.16 96.9249 441.128 97.0355 441.092 97.1549C440.886 97.4706 440.7 97.7987 440.534 98.1382C440.532 98.0881 440.531 98.0391 440.53 97.9887C440.724 97.5819 440.947 97.1911 441.196 96.8134ZM504.668 116.268C504.758 115.693 504.598 115.745 504.671 114.98C504.553 115.074 504.437 115.178 504.32 115.276C504.337 115.858 504.382 115.991 504.353 116.623C504.391 116.549 504.43 116.474 504.468 116.402C504.46 116.297 504.45 116.185 504.443 116.083C504.55 115.921 504.565 116.931 504.669 116.27C504.668 116.269 504.668 116.269 504.668 116.268ZM504.621 110.371C504.636 110.061 504.694 108.835 504.645 108.668C504.479 108.101 504.584 111.56 504.437 109.01C504.413 109.022 504.39 109.01 504.367 109.01C504.359 109.475 504.352 109.939 504.346 110.408C504.438 110.383 504.528 110.399 504.621 110.371ZM478.555 117.524C479.03 117.536 481.298 117.458 480.559 117.353C480.341 117.322 479.329 117.473 478.944 117.466C478.695 117.462 478.974 117.38 478.482 117.41C478.504 117.446 478.518 117.487 478.556 117.523C478.556 117.523 478.555 117.524 478.555 117.524ZM477.663 118.004C478.155 117.989 478.653 117.97 479.148 117.955C478.787 117.861 478.076 117.921 478.034 117.789C478.17 117.779 478.303 117.769 478.439 117.759C478.543 117.788 478.645 117.817 478.747 117.846C479.172 117.774 478.914 117.738 479.706 117.759C479.227 117.559 479.138 117.452 477.783 117.654C478.039 117.545 477.798 117.192 477.047 117.445C476.907 117.491 477.493 117.523 477.5 117.53C477.59 117.623 477.265 117.682 477.362 117.77C477.405 117.81 477.763 117.809 477.817 117.864C477.841 117.891 477.501 117.968 477.663 118.004ZM476.682 117.533C476.835 117.477 476.314 117.343 475.863 117.37C475.158 117.412 476.269 117.539 476.682 117.533ZM441.197 96.8112C441.196 96.812 441.196 96.8127 441.196 96.8134C441.196 96.813 441.196 96.8126 441.196 96.8122C441.196 96.8119 441.197 96.8116 441.197 96.8112ZM504.556 111.967C504.508 111.602 504.515 111.062 504.439 111.102C504.454 110.925 504.468 110.746 504.483 110.568C504.461 110.57 504.438 110.573 504.415 110.575C504.401 111.109 504.386 111.641 504.372 112.174C504.433 112.107 504.494 112.045 504.556 111.967ZM504.609 106.153C504.617 105.482 504.513 106.045 504.463 105.897C504.413 105.75 504.454 105.153 504.382 105.223C504.379 105.618 504.377 106.03 504.374 106.429C504.452 106.324 504.531 106.25 504.609 106.152C504.609 106.152 504.609 106.153 504.609 106.153ZM454.871 117.452C455.326 117.475 455.14 117.554 456.039 117.461C456.038 117.461 456.037 117.461 456.037 117.461C455.182 117.397 454.081 117.339 453.138 117.402C453.715 117.485 454.155 117.417 454.871 117.452ZM504.436 117.859C504.498 118.052 504.55 117.157 504.492 116.959C504.398 116.64 504.341 117.567 504.436 117.859ZM438.994 115.492C438.801 114.8 438.585 116.112 438.679 117.485C438.687 117.604 438.748 116.717 438.786 116.98C438.789 117.006 438.785 117.493 438.811 117.614C438.838 117.734 438.901 117.608 438.927 117.805C438.934 117.86 438.938 117.927 438.94 118L438.94 118.061L439 118.06C439.388 118.051 439.976 118.103 440.194 118.052C440.228 118.044 439.742 117.961 439.712 117.958C439.451 117.932 439.196 117.949 439 117.971L439.029 118C439.008 117.821 438.983 117.693 438.983 117.656C438.979 117.259 439.065 117.319 439.085 117.219C439.122 117.03 439.085 116.697 439.087 116.673C439.162 116.072 439.141 117.447 439.172 117.632C439.215 117.892 439.256 117.892 439.293 118L439 117.707C439.1 117.673 439.292 117.644 439.869 117.621C439.983 117.617 441.346 117.622 439.628 117.526C441.856 117.395 440.403 117.387 439 117.41L439.59 118C439.578 117.278 439.558 116.569 439.543 116.382C439.523 116.129 439.442 116.513 439.405 116.359C439.321 116.008 439.306 115.409 439.188 115.462C438.94 115.578 439.103 116.364 439.061 116.906C439.007 116.849 438.955 116.828 438.902 116.722C438.973 116.885 439.008 115.543 438.994 115.492C438.994 115.492 438.994 115.492 438.994 115.492ZM445.034 117.723C445.791 117.797 445.738 117.641 446.432 117.73C447.044 117.59 445.837 117.599 445.696 117.591C445.054 117.556 445.068 117.403 444.411 117.45C444.637 117.54 444.821 117.632 445.034 117.723ZM439.342 117.442C439.421 117.949 439.42 117.042 439.435 117.005C439.533 116.76 439.56 117.675 439.515 118L439 117.485C439.129 117.502 439.165 117.531 439 117.571L439.429 118C439.404 117.898 439.375 117.721 439.342 117.442ZM481.507 117.839C481.765 117.844 481.601 117.768 481.828 117.746C482.056 117.723 482.833 117.788 482.814 117.741C482.794 117.694 481.369 117.571 482.799 117.544C482.751 117.518 482.767 117.498 482.744 117.474C482.351 117.473 481.954 117.472 481.561 117.471C481.776 117.548 481.998 117.628 482.205 117.702C481.984 117.763 481.86 117.685 481.848 117.685C481.848 117.685 481.848 117.685 481.848 117.685C481.437 117.691 480.929 117.827 481.507 117.839ZM461.232 117.6C461.155 117.791 461.762 117.578 462.012 117.555C462.261 117.531 462.603 117.602 462.475 117.52C462.071 117.463 461.24 117.579 461.232 117.601C461.232 117.601 461.232 117.6 461.232 117.6ZM449.151 117.722C449.786 117.676 449.685 117.627 450.463 117.683C450.432 117.637 450.402 117.59 450.372 117.545C449.755 117.544 449.798 117.677 449.084 117.624C448.967 117.615 449.218 117.508 448.689 117.543C448.843 117.599 448.999 117.663 449.151 117.722ZM452.299 117.552C451.57 117.559 450.991 117.931 452.335 117.763C452.534 117.738 452.848 117.546 452.299 117.552ZM474.779 117.848C476.019 117.859 474.61 117.799 474.287 117.742C477.175 117.696 473.961 117.757 473.672 117.567C473.32 117.621 472.659 117.745 473.393 117.778C473.699 117.792 473.587 117.736 473.606 117.736C474.169 117.75 474.101 117.842 474.779 117.848ZM443.717 117.732C443.764 117.729 443.69 117.665 443.839 117.652C443.988 117.639 444.326 117.684 444.359 117.645C444.392 117.605 443.716 117.574 443.508 117.603C443.3 117.632 443.293 117.756 443.717 117.732ZM448.478 117.89C449.098 117.844 448.085 117.607 447.95 117.608C446.765 117.621 448.514 117.815 448.478 117.89ZM471.897 118.25C473.393 118.13 472.299 117.921 471.362 117.796C471.238 117.821 471.111 117.847 470.989 117.872C471.551 117.718 472.536 117.565 470.345 117.7C471.544 117.736 470.54 117.777 470.532 117.786C470.4 118.07 472.177 117.938 471.896 118.25C471.896 118.25 471.897 118.25 471.897 118.25ZM441.7 117.664C441.049 117.665 439.357 117.714 440.147 117.838C440.665 117.78 441.182 117.722 441.7 117.664ZM496.384 118.233C496.916 118.304 497.406 118.303 498.062 118.298C497.472 118.195 497.86 118.183 498.059 118.158C498.361 118.12 497.629 118.123 497.627 118.117C497.641 118.019 498.107 118.004 497.045 118.006C497.308 117.972 497.567 117.938 497.829 117.904C497.02 117.899 496.829 117.836 496.316 117.758C496.814 117.948 496.158 117.829 495.562 117.924C495.265 117.971 496.113 118.197 496.386 118.233C496.385 118.233 496.385 118.233 496.384 118.233ZM473.443 118.288C473.597 118.254 473.738 118.207 473.887 118.168C474.049 118.165 474.211 118.161 474.374 118.158C474.394 118.188 474.411 118.22 474.434 118.249C474.648 118.258 474.565 118.215 474.628 118.211C474.628 118.212 474.628 118.212 474.628 118.212C475.54 118.156 475.913 118.162 476.627 118.256C476.627 118.163 476.627 118.07 476.627 117.977C476.466 117.986 476.304 117.995 476.144 118.003C476.058 118.053 475.973 118.103 475.887 118.153C475.702 118.126 475.518 118.098 475.332 118.071C475.183 118.089 475.004 118.108 474.876 118.125C474.135 117.865 475.819 118.042 475.834 117.934C475.844 117.865 474.148 117.868 473.903 117.916C473.868 117.923 474.235 118.116 473.614 118.015C473.517 117.999 473.483 117.581 472.814 117.92C472.719 117.968 473.052 118.228 473.443 118.288ZM479.602 118.423C478.648 118.155 482.168 118.438 480.649 118.218C481.082 118.095 481.002 118.097 480.566 117.988C480.527 117.978 480.829 117.944 480.803 117.94C480.395 117.88 479.903 117.912 479.9 117.802C479.789 117.808 479.686 117.813 479.575 117.819C480.035 117.922 479.304 117.991 479.021 118.078C478.892 118.118 479.188 118.13 479.08 118.165C479.04 118.177 478.627 118.152 478.61 118.188C478.574 118.27 478.834 118.38 479.274 118.44C479.274 118.44 479.274 118.44 479.274 118.441C479.384 118.435 479.492 118.429 479.602 118.423ZM459.221 118.201C459.058 118.053 458.408 118.011 459.658 117.938C459.596 117.909 459.532 117.88 459.47 117.851C459.259 117.854 459.055 117.856 458.841 117.858C458.199 118.294 457.026 117.802 457.777 118.112C457.859 118.145 458.359 118.108 457.865 118.199C457.866 118.199 457.867 118.199 457.868 118.199C458.557 118.171 458.643 118.119 459.221 118.201ZM463.833 118.098C465.422 117.786 461.637 117.924 462.269 118.007C462.326 118.014 463.957 117.947 463.833 118.098ZM451.08 118.368C451.792 118.374 451.839 118.206 451.767 118.145C451.695 118.085 451.202 118.146 451.138 118.137C450.931 118.105 451.371 118.084 451.102 118.041C451.012 118.027 449.771 117.967 449.714 117.974C449.399 118.015 449.86 118.153 449.77 118.169C449.476 118.221 449.076 118.149 448.99 118.223C448.806 118.38 449.552 118.215 449.678 118.212C450.057 118.205 450.024 118.293 450.309 118.311C450.593 118.329 450.779 118.298 451.029 118.305C451.113 118.307 451.043 118.368 451.08 118.368ZM453.436 118.014C452.691 118.141 454.503 118.279 454.718 118.249C455.351 118.161 453.792 117.953 453.436 118.014ZM477.214 118.019C476.534 118.111 478.119 118.186 478.573 118.149C478.489 118.111 477.449 117.988 477.214 118.019ZM471.482 118.249C472.108 118.221 471.278 118.013 470.756 118.016C470.45 118.153 470.738 118.126 471.079 118.131C471.42 118.137 470.994 118.272 471.482 118.249ZM443.351 118.217C443.486 118.219 445.661 118.106 444.411 118.059C444.316 118.056 442.793 118.076 442.677 118.097C442.445 118.139 443.003 118.211 443.351 118.217ZM468.481 118.451C468.812 118.333 469.138 118.335 468.834 118.196C468.833 118.196 468.833 118.196 468.832 118.196C469.671 118.154 469.708 118.437 469.888 118.431C470.52 118.41 469.922 118.208 470.318 118.142C469.396 118.204 469.661 118.068 468.96 118.059C468.802 118.057 468.173 118.139 468.081 118.189C467.989 118.24 468.31 118.392 468.481 118.451ZM440.277 118.246C441.012 118.291 441.684 118.1 440.665 118.07C440.168 118.055 439.829 118.219 440.277 118.246ZM505.294 109.312C505.244 109.424 505.194 109.539 505.144 109.659C505.132 109.389 505.12 109.117 505.107 108.846C505.123 109.061 505.139 109.275 505.154 109.491C505.172 108.982 505.263 108.75 505.294 109.31C505.294 109.311 505.294 109.311 505.294 109.312ZM499.876 92.8882C499.691 92.7308 499.207 92.6696 499.256 92.7063C499.615 92.9639 500.127 93.1034 499.876 92.8882ZM478.22 118.473C479.066 118.494 478.484 118.251 477.966 118.235C478.283 118.281 477.74 118.462 478.22 118.473ZM504.327 97.5774C504.342 97.657 504.356 97.7373 504.373 97.8255C504.286 97.5633 504.28 97.5126 504.327 97.5774ZM443.697 118.431C443.826 118.45 444.781 118.466 444.91 118.442C445.177 118.394 444.433 118.26 443.994 118.301C443.946 118.305 443.568 118.413 443.699 118.431C443.698 118.431 443.697 118.431 443.697 118.431ZM505.387 108.167C505.385 108.169 505.383 108.168 505.381 108.165C505.383 108.166 505.385 108.166 505.387 108.167ZM480.902 91.3658C480.907 91.3695 480.91 91.3733 480.91 91.3769C480.908 91.3733 480.904 91.3696 480.902 91.3658ZM450.432 118.638C450.75 118.87 451.483 118.746 450.904 118.632C450.872 118.626 450.509 118.638 450.432 118.638Z" fill="white"/>
<g filter="url(#filter8_dd_31_2)">
<path d="M442 101C442 97.6863 444.686 95 448 95H496C499.314 95 502 97.6863 502 101V115H442V101Z" fill="url(#paint11_linear_31_2)"/>
<path d="M448 95.1504H496C499.231 95.1504 501.85 97.7691 501.85 101V114.85H442.15V101C442.15 97.7691 444.769 95.1504 448 95.1504Z" stroke="#EFE7E7" stroke-width="0.3"/>
</g>
<g filter="url(#filter9_f_31_2)">
<ellipse cx="471" cy="111" rx="14" ry="1" fill="#3564D9"/>
</g>
<rect x="535.5" y="142.5" width="63" height="23" rx="7.5" fill="url(#paint12_linear_31_2)" stroke="#2C2C2C"/>
<g filter="url(#filter10_d_31_2)">
<rect x="537" y="144" width="60" height="20" rx="6" fill="url(#paint13_linear_31_2)"/>
<rect x="537" y="144" width="60" height="20" rx="6" fill="url(#paint14_linear_31_2)"/>
<rect x="537.25" y="144.25" width="59.5" height="19.5" rx="5.75" stroke="#97A5FF" stroke-width="0.5"/>
</g>
<g filter="url(#filter11_f_31_2)">
<ellipse cx="566" cy="160" rx="14" ry="1" fill="#533725" fill-opacity="0.2"/>
</g>
<path d="M543 92.5H591C595.142 92.5 598.5 95.8579 598.5 100V115.5H535.5V100C535.5 95.8579 538.858 92.5 543 92.5Z" fill="url(#paint15_linear_31_2)" stroke="#2C2C2C"/>
<g filter="url(#filter12_d_31_2)">
<path d="M537 100C537 96.6863 539.686 94 543 94H591C594.314 94 597 96.6863 597 100V114H537V100Z" fill="url(#paint16_linear_31_2)" shape-rendering="crispEdges"/>
<path d="M543 94.25H591C594.176 94.25 596.75 96.8244 596.75 100V113.75H537.25V100C537.25 96.8244 539.824 94.25 543 94.25Z" stroke="#97A5FF" stroke-width="0.5" shape-rendering="crispEdges"/>
</g>
<g filter="url(#filter13_f_31_2)">
<ellipse cx="566" cy="110" rx="14" ry="1" fill="#533725" fill-opacity="0.2"/>
</g>
<rect x="416" y="322" width="206" height="12" fill="#D9D9D9"/>
<rect x="416" y="322" width="206" height="12" fill="url(#paint17_linear_31_2)"/>
<rect x="415.75" y="321.75" width="206.5" height="12.5" stroke="#504E4E" stroke-opacity="0.8" stroke-width="0.5"/>
<path d="M417 323H621V333H417V323Z" fill="url(#paint18_linear_31_2)"/>
<path d="M418 324H620V332H418V324Z" fill="#6C6C6C"/>
<path d="M417 323L416 322H622L621 323H417Z" fill="#D9D9D9"/>
<path d="M417 333L416 334H622L621 333H417Z" fill="#635F5F"/>
<path d="M418 324L417 323H621L620 324H418Z" fill="#595757"/>
<path d="M418 332L417 333H621L620 332H418Z" fill="#D9D9D9"/>
<rect x="660" y="241" width="206" height="12" transform="rotate(90 660 241)" fill="#D9D9D9"/>
<rect x="660" y="241" width="206" height="12" transform="rotate(90 660 241)" fill="url(#paint19_linear_31_2)"/>
<rect x="660.25" y="240.75" width="206.5" height="12.5" transform="rotate(90 660.25 240.75)" stroke="#504E4E" stroke-opacity="0.8" stroke-width="0.5"/>
<path d="M659 242V446H649V242H659Z" fill="url(#paint20_linear_31_2)"/>
<path d="M658 243V445H650V243H658Z" fill="#6C6C6C"/>
<path d="M659 242L660 241V447L659 446V242Z" fill="#D9D9D9"/>
<path d="M649 242L648 241V447L649 446V242Z" fill="#635F5F"/>
<path d="M658 243L659 242V446L658 445V243Z" fill="#595757"/>
<path d="M650 243L649 242V446L650 445V243Z" fill="#D9D9D9"/>
<rect x="690.5" y="407.5" width="15" height="35.0006" rx="4.5" fill="url(#paint21_linear_31_2)" stroke="#2C2C2C"/>
<g filter="url(#filter14_dd_31_2)">
<rect x="691.6" y="410.273" width="12.8" height="29.4542" rx="2.5" fill="url(#paint22_linear_31_2)"/>
<rect x="691.65" y="410.323" width="12.7" height="29.3542" rx="2.45" stroke="#EFE7E7" stroke-width="0.1"/>
</g>
<g filter="url(#filter15_f_31_2)">
<ellipse cx="697.75" cy="434" rx="3.5" ry="1.50003" fill="black" fill-opacity="0.2"/>
</g>
<rect x="690" y="407" width="16" height="36.0006" rx="5" fill="#9E9E9E"/>
<path d="M416 439H618V447H416V439Z" fill="url(#paint23_linear_31_2)"/>
<path d="M417 440L416 439H618L617 440H417Z" fill="#A2A2A2"/>
<path d="M417 446L416 447H618L617 446H417Z" fill="#484848"/>
<path d="M417 440L416 439V447L417 446V440Z" fill="#656565"/>
<path d="M617 440L618 439V447L617 446V440Z" fill="#BABABA"/>
<g filter="url(#filter16_f_31_2)" style="mix-blend-mode:overlay">
<path d="M416 439H618V447H416V439Z" fill="#F51919"/>
</g>
<g filter="url(#filter17_f_31_2)">
<rect x="417" y="442" width="200" height="1" fill="white"/>
</g>
<path d="M416 417H618V425H416V417Z" fill="url(#paint24_linear_31_2)"/>
<path d="M417 418L416 417H618L617 418H417Z" fill="#A2A2A2"/>
<path d="M417 424L416 425H618L617 424H417Z" fill="#484848"/>
<path d="M417 418L416 417V425L417 424V418Z" fill="#656565"/>
<path d="M617 418L618 417V425L617 424V418Z" fill="#BABABA"/>
<g filter="url(#filter18_f_31_2)" style="mix-blend-mode:overlay">
<path d="M416 417H618V425H416V417Z" fill="#00EE5B"/>
</g>
<g filter="url(#filter19_f_31_2)">
<rect x="417" y="420" width="200" height="1" fill="white"/>
</g>
<path d="M416 395H618V403H416V395Z" fill="url(#paint25_linear_31_2)"/>
<path d="M417 396L416 395H618L617 396H417Z" fill="#A2A2A2"/>
<path d="M417 402L416 403H618L617 402H417Z" fill="#484848"/>
<path d="M417 396L416 395V403L417 402V396Z" fill="#656565"/>
<path d="M617 396L618 395V403L617 402V396Z" fill="#BABABA"/>
<g filter="url(#filter20_f_31_2)" style="mix-blend-mode:overlay">
<path d="M416 395H618V403H416V395Z" fill="#0095FF"/>
</g>
<g filter="url(#filter21_f_31_2)">
<rect x="417" y="398" width="200" height="1" fill="white"/>
</g>
<path d="M417 373H619V381H417V373Z" fill="url(#paint26_linear_31_2)"/>
<path d="M418 374L417 373H619L618 374H418Z" fill="#A2A2A2"/>
<path d="M418 380L417 381H619L618 380H418Z" fill="#484848"/>
<path d="M418 374L417 373V381L418 380V374Z" fill="#656565"/>
<path d="M618 374L619 373V381L618 380V374Z" fill="#BABABA"/>
<g filter="url(#filter22_f_31_2)" style="mix-blend-mode:overlay">
<path d="M417 373H619V381H417V373Z" fill="#F87C00"/>
</g>
<g filter="url(#filter23_f_31_2)">
<rect x="418" y="376" width="200" height="1" fill="white"/>
</g>
<defs>
<filter id="filter0_di_31_2" x="29" y="51" width="302" height="202" filterUnits="userSpaceOnUse" color-interpolation-filters="sRGB">
<feFlood flood-opacity="0" result="BackgroundImageFix"/>
<feColorMatrix in="SourceAlpha" type="matrix" values="0 0 0 0 0 0 0 0 0 0 0 0 0 0 0 0 0 0 127 0" result="hardAlpha"/>
<feMorphology radius="5" operator="dilate" in="SourceAlpha" result="effect1_dropShadow_31_2"/>
<feOffset/>
<feGaussianBlur stdDeviation="2"/>
<feComposite in2="hardAlpha" operator="out"/>
<feColorMatrix type="matrix" values="0 0 0 0 0.204419 0 0 0 0 0.207742 0 0 0 0 0.218658 0 0 0 0.58 0"/>
<feBlend mode="normal" in2="BackgroundImageFix" result="effect1_dropShadow_31_2"/>
<feBlend mode="normal" in="SourceGraphic" in2="effect1_dropShadow_31_2" result="shape"/>
<feColorMatrix in="SourceAlpha" type="matrix" values="0 0 0 0 0 0 0 0 0 0 0 0 0 0 0 0 0 0 127 0" result="hardAlpha"/>
<feMorphology radius="5" operator="erode" in="SourceAlpha" result="effect2_innerShadow_31_2"/>
<feOffset/>
<feGaussianBlur stdDeviation="2"/>
<feComposite in2="hardAlpha" operator="arithmetic" k2="-1" k3="1"/>
<feColorMatrix type="matrix" values="0 0 0 0 0 0 0 0 0 0 0 0 0 0 0 0 0 0 0.25 0"/>
<feBlend mode="normal" in2="shape" result="effect2_innerShadow_31_2"/>
</filter>
<filter id="filter1_di_31_2" x="30.1" y="370.1" width="299.8" height="199.8" filterUnits="userSpaceOnUse" color-interpolation-filters="sRGB">
<feFlood flood-opacity="0" result="BackgroundImageFix"/>
<feColorMatrix in="SourceAlpha" type="matrix" values="0 0 0 0 0 0 0 0 0 0 0 0 0 0 0 0 0 0 127 0" result="hardAlpha"/>
<feMorphology radius="1" operator="dilate" in="SourceAlpha" result="effect1_dropShadow_31_2"/>
<feOffset/>
<feGaussianBlur stdDeviation="0.95"/>
<feComposite in2="hardAlpha" operator="out"/>
<feColorMatrix type="matrix" values="0 0 0 0 0.204419 0 0 0 0 0.207742 0 0 0 0 0.218658 0 0 0 0.58 0"/>
<feBlend mode="normal" in2="BackgroundImageFix" result="effect1_dropShadow_31_2"/>
<feBlend mode="normal" in="SourceGraphic" in2="effect1_dropShadow_31_2" result="shape"/>
<feColorMatrix in="SourceAlpha" type="matrix" values="0 0 0 0 0 0 0 0 0 0 0 0 0 0 0 0 0 0 127 0" result="hardAlpha"/>
<feMorphology radius="5" operator="erode" in="SourceAlpha" result="effect2_innerShadow_31_2"/>
<feOffset/>
<feGaussianBlur stdDeviation="2"/>
<feComposite in2="hardAlpha" operator="arithmetic" k2="-1" k3="1"/>
<feColorMatrix type="matrix" values="0 0 0 0 0 0 0 0 0 0 0 0 0 0 0 0 0 0 0.25 0"/>
<feBlend mode="normal" in2="shape" result="effect2_innerShadow_31_2"/>
</filter>
<filter id="filter2_dd_31_2" x="338.9" y="135.9" width="72.2" height="32.2" filterUnits="userSpaceOnUse" color-interpolation-filters="sRGB">
<feFlood flood-opacity="0" result="BackgroundImageFix"/>
<feColorMatrix in="SourceAlpha" type="matrix" values="0 0 0 0 0 0 0 0 0 0 0 0 0 0 0 0 0 0 127 0" result="hardAlpha"/>
<feMorphology radius="1" operator="dilate" in="SourceAlpha" result="effect1_dropShadow_31_2"/>
<feOffset/>
<feGaussianBlur stdDeviation="2.55"/>
<feComposite in2="hardAlpha" operator="out"/>
<feColorMatrix type="matrix" values="0 0 0 0 0.708118 0 0 0 0 0.708574 0 0 0 0 0.711538 0 0 0 0.76 0"/>
<feBlend mode="normal" in2="BackgroundImageFix" result="effect1_dropShadow_31_2"/>
<feColorMatrix in="SourceAlpha" type="matrix" values="0 0 0 0 0 0 0 0 0 0 0 0 0 0 0 0 0 0 127 0" result="hardAlpha"/>
<feOffset dy="4"/>
<feGaussianBlur stdDeviation="0.8"/>
<feComposite in2="hardAlpha" operator="out"/>
<feColorMatrix type="matrix" values="0 0 0 0 0 0 0 0 0 0 0 0 0 0 0 0 0 0 0.25 0"/>
<feBlend mode="normal" in2="effect1_dropShadow_31_2" result="effect2_dropShadow_31_2"/>
<feBlend mode="normal" in="SourceGraphic" in2="effect2_dropShadow_31_2" result="shape"/>
</filter>
<filter id="filter3_f_31_2" x="357.9" y="154.9" width="32.2" height="6.2" filterUnits="userSpaceOnUse" color-interpolation-filters="sRGB">
<feFlood flood-opacity="0" result="BackgroundImageFix"/>
<feBlend mode="normal" in="SourceGraphic" in2="BackgroundImageFix" result="shape"/>
<feGaussianBlur stdDeviation="1.05" result="effect1_foregroundBlur_31_2"/>
</filter>
<filter id="filter4_dd_31_2" x="339.9" y="87.9" width="72.2" height="32.2" filterUnits="userSpaceOnUse" color-interpolation-filters="sRGB">
<feFlood flood-opacity="0" result="BackgroundImageFix"/>
<feColorMatrix in="SourceAlpha" type="matrix" values="0 0 0 0 0 0 0 0 0 0 0 0 0 0 0 0 0 0 127 0" result="hardAlpha"/>
<feMorphology radius="1" operator="dilate" in="SourceAlpha" result="effect1_dropShadow_31_2"/>
<feOffset/>
<feGaussianBlur stdDeviation="2.55"/>
<feComposite in2="hardAlpha" operator="out"/>
<feColorMatrix type="matrix" values="0 0 0 0 0.708118 0 0 0 0 0.708574 0 0 0 0 0.711538 0 0 0 0.76 0"/>
<feBlend mode="normal" in2="BackgroundImageFix" result="effect1_dropShadow_31_2"/>
<feColorMatrix in="SourceAlpha" type="matrix" values="0 0 0 0 0 0 0 0 0 0 0 0 0 0 0 0 0 0 127 0" result="hardAlpha"/>
<feOffset dy="4"/>
<feGaussianBlur stdDeviation="0.8"/>
<feComposite in2="hardAlpha" operator="out"/>
<feColorMatrix type="matrix" values="0 0 0 0 0 0 0 0 0 0 0 0 0 0 0 0 0 0 0.25 0"/>
<feBlend mode="normal" in2="effect1_dropShadow_31_2" result="effect2_dropShadow_31_2"/>
<feBlend mode="normal" in="SourceGraphic" in2="effect2_dropShadow_31_2" result="shape"/>
</filter>
<filter id="filter5_f_31_2" x="358.9" y="106.9" width="32.2" height="6.2" filterUnits="userSpaceOnUse" color-interpolation-filters="sRGB">
<feFlood flood-opacity="0" result="BackgroundImageFix"/>
<feBlend mode="normal" in="SourceGraphic" in2="BackgroundImageFix" result="shape"/>
<feGaussianBlur stdDeviation="1.05" result="effect1_foregroundBlur_31_2"/>
</filter>
<filter id="filter6_dd_31_2" x="429.9" y="131.9" width="82.2" height="42.2" filterUnits="userSpaceOnUse" color-interpolation-filters="sRGB">
<feFlood flood-opacity="0" result="BackgroundImageFix"/>
<feColorMatrix in="SourceAlpha" type="matrix" values="0 0 0 0 0 0 0 0 0 0 0 0 0 0 0 0 0 0 127 0" result="hardAlpha"/>
<feMorphology radius="3" operator="dilate" in="SourceAlpha" result="effect1_dropShadow_31_2"/>
<feOffset/>
<feGaussianBlur stdDeviation="4.05"/>
<feComposite in2="hardAlpha" operator="out"/>
<feColorMatrix type="matrix" values="0 0 0 0 0.243137 0 0 0 0 0.45098 0 0 0 0 0.972549 0 0 0 1 0"/>
<feBlend mode="normal" in2="BackgroundImageFix" result="effect1_dropShadow_31_2"/>
<feColorMatrix in="SourceAlpha" type="matrix" values="0 0 0 0 0 0 0 0 0 0 0 0 0 0 0 0 0 0 127 0" result="hardAlpha"/>
<feOffset dy="4"/>
<feGaussianBlur stdDeviation="0.8"/>
<feComposite in2="hardAlpha" operator="out"/>
<feColorMatrix type="matrix" values="0 0 0 0 0 0 0 0 0 0 0 0 0 0 0 0 0 0 0.25 0"/>
<feBlend mode="normal" in2="effect1_dropShadow_31_2" result="effect2_dropShadow_31_2"/>
<feBlend mode="normal" in="SourceGraphic" in2="effect2_dropShadow_31_2" result="shape"/>
</filter>
<filter id="filter7_f_31_2" x="453.9" y="155.9" width="32.2" height="6.2" filterUnits="userSpaceOnUse" color-interpolation-filters="sRGB">
<feFlood flood-opacity="0" result="BackgroundImageFix"/>
<feBlend mode="normal" in="SourceGraphic" in2="BackgroundImageFix" result="shape"/>
<feGaussianBlur stdDeviation="1.05" result="effect1_foregroundBlur_31_2"/>
</filter>
<filter id="filter8_dd_31_2" x="430.9" y="83.9" width="82.2" height="42.2" filterUnits="userSpaceOnUse" color-interpolation-filters="sRGB">
<feFlood flood-opacity="0" result="BackgroundImageFix"/>
<feColorMatrix in="SourceAlpha" type="matrix" values="0 0 0 0 0 0 0 0 0 0 0 0 0 0 0 0 0 0 127 0" result="hardAlpha"/>
<feMorphology radius="3" operator="dilate" in="SourceAlpha" result="effect1_dropShadow_31_2"/>
<feOffset/>
<feGaussianBlur stdDeviation="4.05"/>
<feComposite in2="hardAlpha" operator="out"/>
<feColorMatrix type="matrix" values="0 0 0 0 0.243137 0 0 0 0 0.45098 0 0 0 0 0.972549 0 0 0 1 0"/>
<feBlend mode="normal" in2="BackgroundImageFix" result="effect1_dropShadow_31_2"/>
<feColorMatrix in="SourceAlpha" type="matrix" values="0 0 0 0 0 0 0 0 0 0 0 0 0 0 0 0 0 0 127 0" result="hardAlpha"/>
<feOffset dy="4"/>
<feGaussianBlur stdDeviation="0.8"/>
<feComposite in2="hardAlpha" operator="out"/>
<feColorMatrix type="matrix" values="0 0 0 0 0 0 0 0 0 0 0 0 0 0 0 0 0 0 0.25 0"/>
<feBlend mode="normal" in2="effect1_dropShadow_31_2" result="effect2_dropShadow_31_2"/>
<feBlend mode="normal" in="SourceGraphic" in2="effect2_dropShadow_31_2" result="shape"/>
</filter>
<filter id="filter9_f_31_2" x="454.9" y="107.9" width="32.2" height="6.2" filterUnits="userSpaceOnUse" color-interpolation-filters="sRGB">
<feFlood flood-opacity="0" result="BackgroundImageFix"/>
<feBlend mode="normal" in="SourceGraphic" in2="BackgroundImageFix" result="shape"/>
<feGaussianBlur stdDeviation="1.05" result="effect1_foregroundBlur_31_2"/>
</filter>
<filter id="filter10_d_31_2" x="525.9" y="132.9" width="82.2" height="42.2" filterUnits="userSpaceOnUse" color-interpolation-filters="sRGB">
<feFlood flood-opacity="0" result="BackgroundImageFix"/>
<feColorMatrix in="SourceAlpha" type="matrix" values="0 0 0 0 0 0 0 0 0 0 0 0 0 0 0 0 0 0 127 0" result="hardAlpha"/>
<feMorphology radius="3" operator="dilate" in="SourceAlpha" result="effect1_dropShadow_31_2"/>
<feOffset/>
<feGaussianBlur stdDeviation="4.05"/>
<feComposite in2="hardAlpha" operator="out"/>
<feColorMatrix type="matrix" values="0 0 0 0 0.156863 0 0 0 0 0.270588 0 0 0 0 1 0 0 0 1 0"/>
<feBlend mode="normal" in2="BackgroundImageFix" result="effect1_dropShadow_31_2"/>
<feBlend mode="normal" in="SourceGraphic" in2="effect1_dropShadow_31_2" result="shape"/>
</filter>
<filter id="filter11_f_31_2" x="549.9" y="156.9" width="32.2" height="6.2" filterUnits="userSpaceOnUse" color-interpolation-filters="sRGB">
<feFlood flood-opacity="0" result="BackgroundImageFix"/>
<feBlend mode="normal" in="SourceGraphic" in2="BackgroundImageFix" result="shape"/>
<feGaussianBlur stdDeviation="1.05" result="effect1_foregroundBlur_31_2"/>
</filter>
<filter id="filter12_d_31_2" x="525.9" y="82.9" width="82.2" height="42.2" filterUnits="userSpaceOnUse" color-interpolation-filters="sRGB">
<feFlood flood-opacity="0" result="BackgroundImageFix"/>
<feColorMatrix in="SourceAlpha" type="matrix" values="0 0 0 0 0 0 0 0 0 0 0 0 0 0 0 0 0 0 127 0" result="hardAlpha"/>
<feMorphology radius="3" operator="dilate" in="SourceAlpha" result="effect1_dropShadow_31_2"/>
<feOffset/>
<feGaussianBlur stdDeviation="4.05"/>
<feComposite in2="hardAlpha" operator="out"/>
<feColorMatrix type="matrix" values="0 0 0 0 0.156863 0 0 0 0 0.270588 0 0 0 0 1 0 0 0 1 0"/>
<feBlend mode="normal" in2="BackgroundImageFix" result="effect1_dropShadow_31_2"/>
<feBlend mode="normal" in="SourceGraphic" in2="effect1_dropShadow_31_2" result="shape"/>
</filter>
<filter id="filter13_f_31_2" x="549.9" y="106.9" width="32.2" height="6.2" filterUnits="userSpaceOnUse" color-interpolation-filters="sRGB">
<feFlood flood-opacity="0" result="BackgroundImageFix"/>
<feBlend mode="normal" in="SourceGraphic" in2="BackgroundImageFix" result="shape"/>
<feGaussianBlur stdDeviation="1.05" result="effect1_foregroundBlur_31_2"/>
</filter>
<filter id="filter14_dd_31_2" x="685.5" y="404.173" width="25" height="41.6542" filterUnits="userSpaceOnUse" color-interpolation-filters="sRGB">
<feFlood flood-opacity="0" result="BackgroundImageFix"/>
<feColorMatrix in="SourceAlpha" type="matrix" values="0 0 0 0 0 0 0 0 0 0 0 0 0 0 0 0 0 0 127 0" result="hardAlpha"/>
<feMorphology radius="1" operator="dilate" in="SourceAlpha" result="effect1_dropShadow_31_2"/>
<feOffset/>
<feGaussianBlur stdDeviation="2.55"/>
<feComposite in2="hardAlpha" operator="out"/>
<feColorMatrix type="matrix" values="0 0 0 0 0.708118 0 0 0 0 0.708574 0 0 0 0 0.711538 0 0 0 0.76 0"/>
<feBlend mode="normal" in2="BackgroundImageFix" result="effect1_dropShadow_31_2"/>
<feColorMatrix in="SourceAlpha" type="matrix" values="0 0 0 0 0 0 0 0 0 0 0 0 0 0 0 0 0 0 127 0" result="hardAlpha"/>
<feOffset dy="4"/>
<feGaussianBlur stdDeviation="0.8"/>
<feComposite in2="hardAlpha" operator="out"/>
<feColorMatrix type="matrix" values="0 0 0 0 0 0 0 0 0 0 0 0 0 0 0 0 0 0 0.25 0"/>
<feBlend mode="normal" in2="effect1_dropShadow_31_2" result="effect2_dropShadow_31_2"/>
<feBlend mode="normal" in="SourceGraphic" in2="effect2_dropShadow_31_2" result="shape"/>
</filter>
<filter id="filter15_f_31_2" x="692.15" y="430.4" width="11.2" height="7.20006" filterUnits="userSpaceOnUse" color-interpolation-filters="sRGB">
<feFlood flood-opacity="0" result="BackgroundImageFix"/>
<feBlend mode="normal" in="SourceGraphic" in2="BackgroundImageFix" result="shape"/>
<feGaussianBlur stdDeviation="1.05" result="effect1_foregroundBlur_31_2"/>
</filter>
<filter id="filter16_f_31_2" x="412" y="435" width="210" height="16" filterUnits="userSpaceOnUse" color-interpolation-filters="sRGB">
<feFlood flood-opacity="0" result="BackgroundImageFix"/>
<feBlend mode="normal" in="SourceGraphic" in2="BackgroundImageFix" result="shape"/>
<feGaussianBlur stdDeviation="2" result="effect1_foregroundBlur_31_2"/>
</filter>
<filter id="filter17_f_31_2" x="415.9" y="440.9" width="202.2" height="3.2" filterUnits="userSpaceOnUse" color-interpolation-filters="sRGB">
<feFlood flood-opacity="0" result="BackgroundImageFix"/>
<feBlend mode="normal" in="SourceGraphic" in2="BackgroundImageFix" result="shape"/>
<feGaussianBlur stdDeviation="0.55" result="effect1_foregroundBlur_31_2"/>
</filter>
<filter id="filter18_f_31_2" x="412" y="413" width="210" height="16" filterUnits="userSpaceOnUse" color-interpolation-filters="sRGB">
<feFlood flood-opacity="0" result="BackgroundImageFix"/>
<feBlend mode="normal" in="SourceGraphic" in2="BackgroundImageFix" result="shape"/>
<feGaussianBlur stdDeviation="2" result="effect1_foregroundBlur_31_2"/>
</filter>
<filter id="filter19_f_31_2" x="415.9" y="418.9" width="202.2" height="3.2" filterUnits="userSpaceOnUse" color-interpolation-filters="sRGB">
<feFlood flood-opacity="0" result="BackgroundImageFix"/>
<feBlend mode="normal" in="SourceGraphic" in2="BackgroundImageFix" result="shape"/>
<feGaussianBlur stdDeviation="0.55" result="effect1_foregroundBlur_31_2"/>
</filter>
<filter id="filter20_f_31_2" x="412" y="391" width="210" height="16" filterUnits="userSpaceOnUse" color-interpolation-filters="sRGB">
<feFlood flood-opacity="0" result="BackgroundImageFix"/>
<feBlend mode="normal" in="SourceGraphic" in2="BackgroundImageFix" result="shape"/>
<feGaussianBlur stdDeviation="2" result="effect1_foregroundBlur_31_2"/>
</filter>
<filter id="filter21_f_31_2" x="415.9" y="396.9" width="202.2" height="3.2" filterUnits="userSpaceOnUse" color-interpolation-filters="sRGB">
<feFlood flood-opacity="0" result="BackgroundImageFix"/>
<feBlend mode="normal" in="SourceGraphic" in2="BackgroundImageFix" result="shape"/>
<feGaussianBlur stdDeviation="0.55" result="effect1_foregroundBlur_31_2"/>
</filter>
<filter id="filter22_f_31_2" x="413" y="369" width="210" height="16" filterUnits="userSpaceOnUse" color-interpolation-filters="sRGB">
<feFlood flood-opacity="0" result="BackgroundImageFix"/>
<feBlend mode="normal" in="SourceGraphic" in2="BackgroundImageFix" result="shape"/>
<feGaussianBlur stdDeviation="2" result="effect1_foregroundBlur_31_2"/>
</filter>
<filter id="filter23_f_31_2" x="416.9" y="374.9" width="202.2" height="3.2" filterUnits="userSpaceOnUse" color-interpolation-filters="sRGB">
<feFlood flood-opacity="0" result="BackgroundImageFix"/>
<feBlend mode="normal" in="SourceGraphic" in2="BackgroundImageFix" result="shape"/>
<feGaussianBlur stdDeviation="0.55" result="effect1_foregroundBlur_31_2"/>
</filter>
<linearGradient id="paint0_linear_31_2" x1="180" y1="52" x2="180" y2="252" gradientUnits="userSpaceOnUse">
<stop stop-color="#BDBABF"/>
<stop offset="1" stop-color="#484349"/>
</linearGradient>
<linearGradient id="paint1_linear_31_2" x1="180" y1="60" x2="180" y2="244" gradientUnits="userSpaceOnUse">
<stop stop-color="#484349"/>
<stop offset="1" stop-color="#BDBABF" stop-opacity="0.5"/>
</linearGradient>
<linearGradient id="paint2_linear_31_2" x1="180" y1="370" x2="180" y2="570" gradientUnits="userSpaceOnUse">
<stop stop-color="#BDBABF"/>
<stop offset="1" stop-color="#484349"/>
</linearGradient>
<linearGradient id="paint3_linear_31_2" x1="180" y1="373" x2="180" y2="567" gradientUnits="userSpaceOnUse">
<stop stop-color="#484349"/>
<stop offset="1" stop-color="#BDBABF" stop-opacity="0.5"/>
</linearGradient>
<linearGradient id="paint4_linear_31_2" x1="375" y1="140" x2="375" y2="164" gradientUnits="userSpaceOnUse">
<stop stop-color="#484349"/>
<stop offset="1" stop-color="#BDBABF"/>
</linearGradient>
<linearGradient id="paint5_linear_31_2" x1="375" y1="142" x2="375" y2="162" gradientUnits="userSpaceOnUse">
<stop stop-color="#9E9E9E"/>
<stop offset="1" stop-color="#484349"/>
</linearGradient>
<linearGradient id="paint6_linear_31_2" x1="376" y1="92" x2="376" y2="116" gradientUnits="userSpaceOnUse">
<stop stop-color="#484349"/>
<stop offset="1" stop-color="#BDBABF"/>
</linearGradient>
<linearGradient id="paint7_linear_31_2" x1="376" y1="94" x2="376" y2="114" gradientUnits="userSpaceOnUse">
<stop stop-color="#9E9E9E"/>
<stop offset="1" stop-color="#484349"/>
</linearGradient>
<linearGradient id="paint8_linear_31_2" x1="471" y1="141" x2="471" y2="165" gradientUnits="userSpaceOnUse">
<stop stop-color="#484349"/>
<stop offset="1" stop-color="#3E73F8"/>
</linearGradient>
<linearGradient id="paint9_linear_31_2" x1="471" y1="143" x2="471" y2="163" gradientUnits="userSpaceOnUse">
<stop offset="0.447115" stop-color="#3E73F8"/>
<stop offset="1" stop-color="#D7D2D2"/>
</linearGradient>
<linearGradient id="paint10_linear_31_2" x1="472" y1="93" x2="472" y2="117" gradientUnits="userSpaceOnUse">
<stop stop-color="#484349"/>
<stop offset="1" stop-color="#BDBABF"/>
</linearGradient>
<linearGradient id="paint11_linear_31_2" x1="472" y1="95" x2="472" y2="115" gradientUnits="userSpaceOnUse">
<stop offset="0.447115" stop-color="#3E73F8"/>
<stop offset="1" stop-color="#D7D2D2"/>
</linearGradient>
<linearGradient id="paint12_linear_31_2" x1="567" y1="142" x2="567" y2="166" gradientUnits="userSpaceOnUse">
<stop stop-color="#484349"/>
<stop offset="1" stop-color="#BDBABF"/>
</linearGradient>
<linearGradient id="paint13_linear_31_2" x1="567" y1="144" x2="567" y2="164" gradientUnits="userSpaceOnUse">
<stop stop-color="#9E9E9E"/>
<stop offset="0.706731" stop-color="#484349"/>
</linearGradient>
<linearGradient id="paint14_linear_31_2" x1="567" y1="144" x2="567" y2="164" gradientUnits="userSpaceOnUse">
<stop offset="0.495192" stop-color="#2845FF" stop-opacity="0.91"/>
<stop offset="1" stop-color="#3E1996"/>
</linearGradient>
<linearGradient id="paint15_linear_31_2" x1="567" y1="92" x2="567" y2="116" gradientUnits="userSpaceOnUse">
<stop stop-color="#484349"/>
<stop offset="1" stop-color="#BDBABF"/>
</linearGradient>
<linearGradient id="paint16_linear_31_2" x1="567" y1="94" x2="567" y2="114" gradientUnits="userSpaceOnUse">
<stop offset="0.495192" stop-color="#2845FF" stop-opacity="0.91"/>
<stop offset="1" stop-color="#3E1996"/>
</linearGradient>
<linearGradient id="paint17_linear_31_2" x1="519" y1="322" x2="519" y2="334" gradientUnits="userSpaceOnUse">
<stop stop-color="#C5C5C5"/>
<stop offset="1" stop-color="#4A4747"/>
</linearGradient>
<linearGradient id="paint18_linear_31_2" x1="519" y1="323.333" x2="519" y2="332.667" gradientUnits="userSpaceOnUse">
<stop stop-color="#4A4747"/>
<stop offset="1" stop-color="#C5C5C5"/>
</linearGradient>
<linearGradient id="paint19_linear_31_2" x1="763" y1="241" x2="763" y2="253" gradientUnits="userSpaceOnUse">
<stop stop-color="#C5C5C5"/>
<stop offset="1" stop-color="#4A4747"/>
</linearGradient>
<linearGradient id="paint20_linear_31_2" x1="658.667" y1="344" x2="649.333" y2="344" gradientUnits="userSpaceOnUse">
<stop stop-color="#4A4747"/>
<stop offset="1" stop-color="#C5C5C5"/>
</linearGradient>
<linearGradient id="paint21_linear_31_2" x1="698" y1="407" x2="698" y2="443.001" gradientUnits="userSpaceOnUse">
<stop stop-color="#484349"/>
<stop offset="1" stop-color="#BDBABF"/>
</linearGradient>
<linearGradient id="paint22_linear_31_2" x1="698" y1="410.273" x2="698" y2="439.727" gradientUnits="userSpaceOnUse">
<stop stop-color="#9E9E9E"/>
<stop offset="1" stop-color="#484349"/>
</linearGradient>
<linearGradient id="paint23_linear_31_2" x1="517" y1="439" x2="517" y2="447" gradientUnits="userSpaceOnUse">
<stop stop-color="#999999"/>
<stop offset="1" stop-color="#2B2B2B"/>
</linearGradient>
<linearGradient id="paint24_linear_31_2" x1="517" y1="417" x2="517" y2="425" gradientUnits="userSpaceOnUse">
<stop stop-color="#999999"/>
<stop offset="1" stop-color="#2B2B2B"/>
</linearGradient>
<linearGradient id="paint25_linear_31_2" x1="517" y1="395" x2="517" y2="403" gradientUnits="userSpaceOnUse">
<stop stop-color="#999999"/>
<stop offset="1" stop-color="#2B2B2B"/>
</linearGradient>
<linearGradient id="paint26_linear_31_2" x1="518" y1="373" x2="518" y2="381" gradientUnits="userSpaceOnUse">
<stop stop-color="#999999"/>
<stop offset="1" stop-color="#2B2B2B"/>
</linearGradient>
</defs>
</svg>
